<svg xmlns="http://www.w3.org/2000/svg" xmlns:xlink="http://www.w3.org/1999/xlink" viewBox="0 0 400 250"><path d="M0 0h400v250H0z"/><defs><path id="a" d="M0-.1h400v250H0z"/></defs><clipPath id="b"><use xlink:href="#a" overflow="visible"/></clipPath><g clip-path="url(#b)"><path fill="#00FEFE" d="M244.6 185.8c-6.4-4.3-12.8-8.6-19.3-12.9-21.7-14.5-43.8-28.5-66.4-41.4-.7-.4-1.3-1-2.4-.9 4.1 3.3 8.1 6.6 12.1 9.8 22.2 17.7 44.8 34.8 67.6 51.7l.4.4c0 .4-.2.7-.5 1-3.4 3-6.9 6.1-10.2 9.1-4.8 4.4-9.6 8.9-14.5 13.3-1.5 1.3-2.9 2.8-4.5 4-1.2 1-2.6 2-3.4 3.5-9-2.5-18.2-4.4-27-7.6-9.8-3.6-18.6-9.2-27.3-15-14.9-9.9-28.7-21.1-41.8-33.2-15.5-14.5-29.7-30.1-41.8-47.6-8.7-12.7-16.2-26-21.2-40.6 0-.1-.2-.2-.2-.3v-.3c7.7-2.3 15.5-4.4 23.4-6 10.7-2.2 21.4-3.7 32.3-4.4 9.9-.7 19.9-.6 29.8.1 24.6 1.9 48.1 8.1 70.5 18.4 19.3 8.9 36.8 20.6 53.1 34.1 10.4 8.6 20.4 17.7 29.9 27.3.4.4.7.8 1 1.1-.1.9-.8 1.3-1.4 1.9-3.6 3.2-7.2 6.4-10.7 9.7-4.3 3.9-8.5 7.7-12.8 11.6-3.8 3.5-7.5 7-11.3 10.5-1.1.8-2.3 1.8-3.4 2.7z"/><path fill="#00F6F7" d="M362.3 75.5c2.6 1.7 5.1 3.7 7.5 5.8 2.1 1.8 4.4 3.5 6.3 5.5-.6.9-1.4 1.6-2.2 2.4-4.9 4.4-9.8 8.8-14.6 13.3-2.6 2.3-5.1 4.7-7.6 7-4.6 4.2-9.2 8.3-13.8 12.5-2.7 2.4-5.3 5-8 7.4-5.1 4.7-10.3 9.4-15.5 14-1 .9-1.9 2.3-3.5 2.4-.2-4.8.2-9.5.6-14.3.3-3.5.7-7 1.3-10.4 0-.2.1-.4.2-.7 1-.3 1.7-1.1 2.5-1.8 3.1-2.9 6.2-5.7 9.3-8.5 5.4-4.8 10.7-9.7 16.1-14.6 3.8-3.5 7.5-7 11.4-10.4 1.3-1.1 2.5-2.3 3.7-3.4 2-2 4.5-3.8 6.3-6.2z"/><path fill="#02CCD4" d="M404.2 125.5c2.5 5.3 4.2 10.8 5.6 16.5.4 1.7.7 3.5 1.1 5.2-.4 0-.7.1-1 .4-4.4 4-8.8 8-13.1 12-2.4 2.2-4.9 4.5-7.3 6.7-4.7 4.3-9.5 8.5-14.2 12.8-2.6 2.4-5.1 4.9-7.8 7.1-1.2 1-2 2.4-3.5 2.9-.8-6.4-1.5-12.9-2.3-19.3-.2-1.9-.5-3.8-.7-5.7.6-.2 1.1-.5 1.5-1 4-3.7 8.1-7.3 12.1-11 5.3-4.9 10.7-9.8 16.1-14.6 3.8-3.4 7.5-7 11.4-10.4.5-.6 1.1-1.4 2.1-1.6z"/><path fill="#03BEC7" d="M364 189.1c1.5-.6 2.3-2 3.5-2.9 2.7-2.2 5.2-4.7 7.8-7.1 4.7-4.3 9.4-8.5 14.2-12.8 2.5-2.2 4.9-4.5 7.3-6.7 4.4-4 8.8-8 13.1-12 .3-.3.6-.4 1-.4 1.5 8 2 16 1.7 24.1 0 .3-.1.6-.2 1-.6-.1-1 .3-1.3.6-.9.9-1.8 1.7-2.8 2.6-5.4 4.8-10.7 9.7-16.1 14.6-3 2.7-6 5.4-9 8.2-4.8 4.4-9.6 8.9-14.5 13.3-.8.8-1.5 1.8-2.8 1.9-.2-2.8-.4-5.7-.6-8.5-.5-5.4-.9-10.6-1.3-15.9z"/><path fill="#01EEF0" d="M310.8 145.8c1.6-.2 2.5-1.5 3.5-2.4 5.2-4.6 10.3-9.3 15.5-14 2.7-2.5 5.3-5 8-7.4 4.6-4.2 9.2-8.3 13.8-12.5 2.6-2.3 5.1-4.7 7.6-7 4.9-4.4 9.8-8.8 14.6-13.3.8-.7 1.6-1.4 2.2-2.4 3.1 2.6 5.9 5.5 8.5 8.6-.3.6-.7 1-1.2 1.4-3.7 3.3-7.4 6.7-11.1 10-2.6 2.3-5.1 4.7-7.6 7-4.6 4.2-9.3 8.4-14 12.6-3.1 2.8-6.2 5.6-9.2 8.4-5.4 4.9-10.8 9.9-16.3 14.8-3.8 3.4-7.5 6.9-11.3 10.3-.6.6-1.2 1.3-2.1 1.5-.5-1.9-.6-3.9-.7-5.8-.1-3.2-.5-6.5-.2-9.8z"/><path fill="#00FEFE" d="M362.3 75.5c-1.8 2.4-4.3 4.2-6.4 6.2-1.2 1.1-2.5 2.3-3.7 3.4-3.9 3.4-7.6 7-11.4 10.4-5.3 4.9-10.7 9.8-16.1 14.6-3.1 2.8-6.3 5.6-9.3 8.5-.7.7-1.4 1.5-2.5 1.8.6-5.1 1.8-10.1 3.2-15.1 3.9-14.2 9.7-27.5 18.8-39.3 1.2-1.5 2.4-2.9 3.6-4.3.4-.4.7-.7 1.3-.4 7.8 4.3 15.4 8.8 22.5 14.2z"/><path fill="#03CED4" d="M312 233.7l-14.1-10.2c-.3-.2-.6-.5-1-.8-.1-.6.3-1.1.7-1.4 2-1.8 4.1-3.7 6.1-5.5l6.6-6c4.5-4.1 9.1-8.3 13.6-12.4 2.3 2.9 4.3 6.1 6.5 9.1-1.3-3.8-3.3-7.3-4.8-11 2.8-2.5 5.7-5 8.5-7.5 3.8-3.5 7.5-7 11.3-10.4 1.1-.9 1.9-2.2 3.3-2.7-.9 9.3-1.9 18.6-2.8 28 0 .3-.1.5-.2.8-.4 0-.6.1-.9.3-1.9 1.7-3.7 3.4-5.6 5.1-3.1 2.8-6.2 5.6-9.3 8.5-4.8 4.4-9.6 8.9-14.4 13.3-1.2.8-2.4 1.8-3.5 2.8z"/><path fill="#01E6E9" d="M311.8 161.5c.9-.2 1.5-.9 2.1-1.5 3.8-3.4 7.5-6.9 11.3-10.3 5.4-5 10.8-9.9 16.3-14.8 3.1-2.8 6.1-5.6 9.2-8.4 4.6-4.2 9.3-8.4 14-12.6 2.6-2.3 5.1-4.7 7.6-7 3.7-3.4 7.4-6.7 11.1-10 .5-.4.9-.8 1.2-1.4 2.4 2.6 4.6 5.3 6.7 8.1-1.3 1.1-2.6 2.3-3.9 3.4-2.5 2.3-5.1 4.7-7.6 7-4.7 4.3-9.4 8.5-14.1 12.7-2.7 2.4-5.3 5-8 7.4-.6.5-1.1 1.1-2 1.3l-.7-2.1c-.3 1.6-.6 3-.9 4.3-.4 0-.6.2-.9.4-2.8 2.5-5.6 5-8.3 7.5-4.2 3.8-8.4 7.6-12.5 11.4-4.8 4.4-9.6 8.9-14.5 13.3-1.1.9-1.9 2.4-3.5 2.6-1.4-3.6-2.2-7.4-2.6-11.3z"/><path fill="#02FEFE" d="M170.9 252.8c-8.2-.9-16.4-1.6-24.6-2.3-11-.9-22.1-1.6-33.1-2.1-9.6-.5-19.2-.9-28.8-1h-6.1c5.2-2.9 35.2-8.5 52.7-9.8 17.9-1.3 35.7-.7 53.5 1.5.1.6-.3 1-.7 1.3-.9.8-1.7 1.5-2.6 2.3-3 2.7-6 5.4-9 8.2-.6.5-1.4.9-1.3 1.9z"/><path fill="#049FAD" d="M406.9 208.6c-2.8 11.2-6.9 21.9-11.8 32.3-1.4 3-2.9 6-4.5 8.9-.5 0-.8.2-1.1.5-3.6 3.2-7.2 6.4-10.7 9.6-3.6 3.2-7.1 6.5-10.6 9.8-.3.3-.7.5-1.1.5V244c.3 0 .5-.1.7-.3 3.9-3.6 7.9-7.1 11.8-10.7 4.2-3.8 8.3-7.5 12.4-11.3 3.8-3.5 7.5-7 11.4-10.4 1.1-1.2 1.8-2.7 3.5-2.7z"/><path fill="#03B1BC" d="M365.8 213.4c1.3-.1 2-1.1 2.8-1.9 4.8-4.4 9.6-8.9 14.5-13.3 3-2.7 6-5.5 9-8.2 5.4-4.9 10.7-9.8 16.1-14.6.9-.8 1.9-1.7 2.8-2.6.4-.4.7-.7 1.3-.6-.1 2.4-.4 4.8-.5 7.2-.2 3.2-.6 6.3-1 9.5-.2 1.5-.3 3.1-.8 4.5-2.2.9-3.5 2.9-5.2 4.3-3.2 2.7-6.3 5.6-9.4 8.4-5.3 4.9-10.7 9.7-16 14.6-3.8 3.5-7.5 7-11.3 10.5-.4.4-.9.7-1.5.7-.2-2.9-.3-5.8-.5-8.7 0-3.2-.1-6.5-.3-9.8z"/><path fill="#02D9DE" d="M404.2 125.5c-1 .2-1.6 1-2.2 1.6-3.8 3.4-7.5 7-11.4 10.4-5.4 4.9-10.8 9.7-16.1 14.6-4 3.7-8.1 7.3-12.1 11-.5.4-.9.8-1.5 1-1-5.7-1.9-11.3-2.9-17v-.8c.4 0 .8-.1 1.1-.4 3.2-2.9 6.4-5.8 9.5-8.7l6.9-6.3c5.1-4.6 10.2-9.2 15.3-13.9 2-1.8 4.1-3.6 6.1-5.4 2.9 4.4 5.4 9 7.3 13.9z"/><path fill="#00F6F7" d="M244.6 185.8c1.1-1 2.3-1.9 3.4-2.9 3.8-3.5 7.5-7 11.3-10.5 4.2-3.9 8.5-7.8 12.8-11.6 3.6-3.2 7.2-6.4 10.7-9.7.6-.5 1.3-1 1.4-1.9 3.6 3.6 7.1 7.3 10.4 11.1-.2 1.2-1.3 1.5-2.1 2.2-4.1 3.9-8.4 7.7-12.6 11.5-4.9 4.4-9.6 8.9-14.5 13.3-1.4 1.2-2.7 2.5-4.2 3.8-1.3 1.1-2.8 2.1-3.6 3.7-4.4-2.9-8.7-5.9-13-9z"/><path fill="#01ECEF" d="M257.7 194.8c.8-1.6 2.3-2.6 3.6-3.7 1.4-1.2 2.8-2.5 4.2-3.8 4.9-4.3 9.6-8.9 14.5-13.3 4.2-3.8 8.5-7.6 12.6-11.5.7-.7 1.8-1 2.1-2.2 3.7 3.9 7.2 8 10.5 12.2-.2.5-.6.8-1 1.2-2.4 2.2-4.7 4.4-7.1 6.6-5.1 4.7-10.2 9.3-15.4 14-2.5 2.2-5 4.4-7.4 6.6-1.1 1-2.4 1.9-3 3.4-4.6-3-9.2-6.2-13.6-9.5z"/><path fill="#01E2E6" d="M271.2 204.4c.6-1.5 1.9-2.4 3-3.4 2.4-2.3 5-4.4 7.4-6.6 5.1-4.6 10.2-9.3 15.4-14 2.4-2.2 4.8-4.4 7.1-6.6.4-.3.8-.7 1-1.2 3.2 4 6.6 7.8 9.5 12-1.6 1.3-3.1 2.8-4.7 4.2-4.8 4.4-9.6 8.7-14.4 13.1-2.9 2.6-5.8 5.2-8.6 7.8-1.1 1.1-2.5 2-3.3 3.4-4.2-2.8-8.3-5.7-12.4-8.7z"/><path fill="#00F6F7" d="M203.6 223.4c.8-1.5 2.1-2.5 3.4-3.5 1.6-1.3 3-2.7 4.5-4 4.9-4.3 9.6-8.9 14.5-13.3 3.4-3.1 6.8-6.1 10.2-9.1.3-.3.5-.5.5-1 3.8 2.7 7.6 5.5 11.3 8.3.4.3.7.5 1.1.8 0 .5-.4.8-.8 1.1-3 2.7-6 5.5-9 8.2-4.8 4.4-9.6 8.9-14.5 13.3-1.4 1.3-2.7 2.7-4.3 3.9l-11.1-3c-2-.6-3.9-1.1-5.8-1.7z"/><path fill="#02D9DE" d="M283.6 213.1c.8-1.4 2.1-2.3 3.3-3.4 2.8-2.7 5.7-5.2 8.6-7.8 4.8-4.4 9.7-8.7 14.4-13.1 1.5-1.4 3.1-2.9 4.7-4.2 3.3 4.1 6.4 8.3 9.3 12.7-4.5 4.1-9.1 8.3-13.6 12.4l-6.6 6c-2 1.9-4.1 3.7-6.1 5.5-.4.4-.8.8-.7 1.4-4.5-3.1-8.9-6.3-13.3-9.5z"/><path fill="#03BEC7" d="M312 233.7c1.2-1 2.4-2 3.5-3 4.8-4.4 9.6-8.9 14.4-13.3 3.1-2.8 6.2-5.7 9.3-8.5 1.9-1.7 3.7-3.4 5.6-5.1.3-.2.5-.4.9-.3-.4 5.6-.9 11.1-1.3 16.7-.3 3.4-.5 6.7-.8 10.1-1.1.1-1.8 1-2.5 1.7-4.3 3.8-8.5 7.6-12.6 11.5-.5.4-1.1.8-1.1 1.6-5.3-3.8-10.4-7.5-15.4-11.4z"/><path fill="#01ECEF" d="M220.4 228.1c1.6-1.1 2.8-2.6 4.3-3.9 4.9-4.3 9.7-8.8 14.5-13.3 3-2.7 6-5.5 9-8.2.3-.3.8-.6.8-1.1 4.5 3.3 9 6.7 13.6 10-1.5 1.6-3.2 3-4.8 4.5-3.8 3.4-7.5 7-11.4 10.4-1.4 1.2-2.7 2.6-4.1 3.8-1.1.9-2.5 1.7-2.8 3.3-6.4-1.8-12.8-3.7-19.1-5.5z"/><path fill="#02D9DE" d="M348.7 174.8c-1.4.5-2.3 1.8-3.3 2.7-3.9 3.4-7.6 6.9-11.3 10.4-2.8 2.5-5.6 5-8.5 7.5-2.2-4.5-4.5-9.1-6.7-13.6.7 0 .9-.6 1.4-.9 2.5-2.3 5-4.7 7.5-6.9 4.7-4.2 9.4-8.4 14.1-12.7l7.8-7.2c.5-.5 1.1-1 2-1-.6 4.8-1.3 9.6-1.9 14.5-.4 2.4-.8 4.8-1.1 7.2z"/><path fill="#04A9B6" d="M366.7 232c.6 0 1.1-.3 1.5-.7 3.8-3.5 7.5-7 11.3-10.5 5.3-4.9 10.7-9.8 16-14.6 3.1-2.8 6.1-5.8 9.4-8.4 1.7-1.4 3-3.5 5.2-4.3-.7 4.4-1.6 8.8-2.7 13.2-.2.7-.4 1.3-.6 2-1.7 0-2.4 1.5-3.5 2.4-3.9 3.4-7.6 7-11.4 10.4-4.1 3.8-8.3 7.6-12.4 11.3-3.9 3.6-7.9 7.1-11.8 10.7-.2.2-.5.3-.7.3-.4-3.2-.2-6.4-.3-9.6V232z"/><path fill="#01E2E6" d="M396.9 111.6c-2 1.8-4.1 3.6-6.1 5.4-5.1 4.6-10.2 9.2-15.3 13.9l-6.9 6.3c-3.2 2.9-6.4 5.8-9.5 8.7-.3.3-.7.4-1.1.4-.8-3.7-1.5-7.3-2.3-11 .8-.1 1.4-.8 2-1.3 2.7-2.4 5.3-5 8-7.4 4.7-4.3 9.4-8.5 14.1-12.7 2.6-2.3 5.1-4.7 7.6-7 1.3-1.2 2.6-2.3 3.9-3.4 2.1 2.5 4 5.3 5.6 8.1zM351.6 153.1c-.8-.1-1.4.5-2 1l-7.8 7.2c-4.7 4.2-9.4 8.4-14.1 12.7l-7.5 6.9c-.4.4-.7.9-1.4.9-1.6-3-3.5-5.7-4.5-9 1.6-.3 2.4-1.7 3.5-2.6 4.9-4.3 9.7-8.8 14.5-13.3 4.2-3.8 8.4-7.6 12.5-11.4 2.8-2.5 5.6-5 8.3-7.5.3-.2.5-.4.9-.4-.7 5.2-1.6 10.3-2.4 15.5zM239.4 233.6c.3-1.6 1.7-2.4 2.8-3.3 1.4-1.2 2.7-2.5 4.1-3.8 3.9-3.4 7.6-7 11.4-10.4 1.6-1.5 3.3-2.9 4.8-4.5 4.1 3 8.3 6 12.4 9-2.5 2.3-4.9 4.7-7.4 7-3.6 3.3-7.3 6.6-10.9 9.9-.3.3-.6.6-.6 1.1-4.7-1.4-9.4-2.8-14.1-4.1-.8-.3-1.7-.6-2.5-.9z"/><path fill="#02D9DE" d="M256 238.6c0-.5.3-.8.6-1.1 3.6-3.3 7.3-6.5 10.9-9.9 2.5-2.3 5-4.7 7.4-7 4 2.9 8 5.7 12 8.6.3.2.4.5.6.7-2.6 2.8-5.6 5.2-8.4 7.9-1.5 1.5-3.2 2.9-4.8 4.3-.6.5-1.4.9-1.3 1.9-5.5-1.8-11.3-3.6-17-5.4z"/><path fill="#03CED4" d="M273.2 244c-.1-1 .7-1.4 1.3-1.9 1.6-1.5 3.2-2.8 4.8-4.3 2.7-2.7 5.8-5 8.4-7.9.2.1.5 0 .7.2 4.7 3.3 9.3 6.7 14 10-.6 0-1 .5-1.4.9-2.1 2.1-4.3 4-6.5 6-1 .9-2.3 1.7-2.7 3.1-5.4-1.8-10.9-3.6-16.3-5.3-.8-.3-1.5-.5-2.3-.8z"/><path fill="#00F6F7" d="M170.9 252.8c-.1-1 .7-1.4 1.3-1.9 3-2.7 6-5.5 9-8.2.9-.8 1.7-1.5 2.6-2.3.4-.3.7-.7.7-1.3 6.3.7 12.6 1.8 18.9 2.9.2 0 .3.1.5.2 0 .5-.4.8-.7 1.1-3.8 3.4-7.6 6.9-11.4 10.3-.4.4-.9.7-.8 1.4-5.3-.6-10.7-1.2-16-1.8-1.4-.2-2.7-.3-4.1-.4z"/><path fill="#03BEC7" d="M291.8 250.1c.4-1.4 1.7-2.2 2.7-3.1 2.2-2 4.4-3.9 6.5-6 .4-.4.7-.9 1.4-.9 5.5 3.8 11.1 7.5 16.6 11.3l6 4.2c-1.7 1.5-3.5 3.1-5.2 4.6l-12.3-4.5c-5.4-1.9-10.6-3.8-15.7-5.6z"/><path fill="#01ECEF" d="M190.9 255c-.1-.7.4-1 .8-1.4 3.8-3.4 7.6-6.9 11.4-10.3.3-.3.7-.6.7-1.1 4.8.7 9.4 1.9 14.1 2.9 1.7.4 3.3.9 5 1.3 0 .3-.1.5-.3.7-2.9 2.7-5.8 5.3-8.7 8-.9.8-2 1.4-2.2 2.7-6.9-.9-13.8-1.9-20.8-2.8z"/><path fill="#01E2E6" d="M211.8 257.8c.2-1.4 1.4-1.9 2.2-2.7 2.9-2.7 5.8-5.3 8.7-8 .2-.2.3-.4.3-.7 5.7 1.3 11.4 2.9 16.9 4.8 0 .3 0 .6-.2.8-2.2 1.9-4.4 3.9-6.5 5.9-1 1-2.3 1.8-2.9 3.2-6.1-1.2-12.3-2.3-18.5-3.3z"/><path fill="#0697A6" d="M367.1 270c.5 0 .8-.1 1.1-.5 3.5-3.3 7-6.5 10.6-9.8 3.6-3.2 7.1-6.4 10.7-9.6.3-.3.7-.5 1.1-.5-4.9 9.5-10.6 18.4-16.7 27.1-2.2 3.1-4.5 6.2-6.8 9.3v-16z"/><path fill="#03B1BC" d="M327.3 245c0-.8.6-1.1 1.1-1.6 4.2-3.8 8.4-7.7 12.6-11.5.7-.6 1.4-1.6 2.5-1.7-.6 7.4-1.2 14.7-1.7 22.1-.1.7-.1 1.5-.2 2.2 0 .9-.3.9-1 .4-4.4-3.2-8.9-6.6-13.3-9.9z"/><path fill="#02D9DE" d="M230.4 261c.6-1.4 1.8-2.2 2.9-3.2 2.1-2 4.3-3.9 6.5-5.9.2-.2.2-.5.2-.8 5.5 1.5 10.8 3.4 16.1 5.5 0 .4-.2.8-.5 1.1-1.5 1.4-3.1 2.8-4.6 4.2-1 .9-2.2 1.7-2.8 3-6-1.3-11.9-2.6-17.8-3.9z"/><path fill="#03BEC7" d="M301.8 283c-4.7-1.9-9.3-3.7-14-5.5-3.9-1.5-7.8-2.9-11.8-4.3 0-.3.2-.6.4-.9 1.7-1.6 3.5-3.1 5.2-4.7 2.5.8 4.8 2.1 7.1 3.3 5.5 2.8 10.9 5.7 16.1 9-.7 1.4-1.9 2.2-3 3.1z"/><path fill="#03CED4" d="M248.1 264.9c.5-1.4 1.8-2.1 2.8-3 1.5-1.4 3.1-2.8 4.6-4.2.3-.3.5-.6.5-1.1 4.8 1.8 9.7 3.6 14.3 5.8-.8 1-1.8 1.8-2.7 2.7-1.4 1.3-3.1 2.4-4.1 4.1-3.6-1-7.3-2-10.9-3-1.4-.4-3-.9-4.5-1.3z"/><path fill="#02CCD4" d="M263.6 269.2c1-1.7 2.7-2.8 4.1-4.1.9-.9 1.9-1.7 2.7-2.7 3.8 1.6 7.7 3.1 11.2 5.2-1.7 1.6-3.5 3.1-5.2 4.7-.3.2-.4.5-.4.9-4.1-1.4-8.3-2.7-12.4-4z"/><path fill="#04A9B6" d="M301.8 283c1.1-.9 2.3-1.7 2.9-3.1 7.8 4.5 15.2 9.6 22.4 14.9.2.1.4.3.4.7-.5-.3-1-.5-1.5-.8-7.6-4.1-15.4-7.9-23.4-11.3-.2-.1-.5-.2-.8-.4z"/><path fill="#03B1BC" d="M319.6 260.2c1.7-1.5 3.5-3.1 5.2-4.6 2.4 1.6 4.9 3.3 7.3 4.9.5.3.6.6.1 1l-.4.4c-2.3 2.4-2.3 2.4-5.3 1.1-2.2-1-4.7-1.7-6.9-2.8z"/></g></svg>