<svg xmlns="http://www.w3.org/2000/svg" viewBox="0 0 100 62"><path fill="#4DDBF8" d="M84.3 61c-10.2-3.2-21.2-4.4-31.9-3.9-11.7.6-23.2 2-34.8 4.1C28 55.6 40 53.3 51.5 53.5c11.2.2 22.6 2.5 32.8 7.5zM74.7.4c-6.5 10.7-3.1 26.9-.1 30.5 1.9 2.3 3.9 5 5.8 7.6-7.6-7.8-16.6-14.5-27-19.7-17.5-8.7-35.8-8.2-53 1.2 9.4 16.1 34.5 27.9 42 28.4 14.3.9 28.6 2.1 40.2 4.3.3-.3.5-.6.7-1-3.4-1.5-4.1-1.7-7.2-3C69.7 46 44.5 34.4 31 27.2c11.3 3.6 26.4 9.8 44.2 18 3.5 1.6 6.8 3.2 10.1 4.7l-.6-5.3c-1.2-9.3-2.2-19.4-2.2-26.8 4.4 9.6 8.1 22.7 10.9 38.6 5.3-10.6 7.6-21.3 5.7-32.3C97 12.7 88.6 4.5 74.7.4z"/></svg>