<svg xmlns="http://www.w3.org/2000/svg" xmlns:xlink="http://www.w3.org/1999/xlink" viewBox="0 0 400 250"><path fill="#FFF" d="M0 0h400v250H0z"/><defs><path id="a" d="M0 0h400v250H0z"/></defs><clipPath id="b"><use xlink:href="#a" overflow="visible"/></clipPath><g clip-path="url(#b)"><linearGradient id="c" gradientUnits="userSpaceOnUse" x1="81.2198" y1="143.3803" x2="432.1459" y2="143.3803" gradientTransform="matrix(.9938 .1115 -.1115 .9938 18.3346 -44.1027)"><stop offset=".08780403" stop-color="#80c242"/><stop offset=".8157" stop-color="#558c3f"/></linearGradient><path fill="url(#c)" d="M431.8 81.9c-.8 1-2.3 16.4-65.4 30.7-36.4 8.2-54.5 22.1-63.7 39.3-2.8-33.1-24.1-64.2-84.8-93.3C117.7 10.4 125.5-15 124.8-17c-.5.9-57 79.1-32 127.9 27.9 54.6 114.4 75.7 140.8 91.1 43.2 25.2 40 55.4 41.8 56.1 8.1-61.9-13.4-132.8-103.3-175.2 83.1 31.5 120.9 72.9 117 139.6 5.6-15.7 10.3-31 12.5-46 15.5-25.3 42.3-38.6 83.2-44.3-56.4 12.3-83.4 49.6-92.9 85.7 1.1-.2 6.2-17.6 34.3-26.3 17.2-5.3 67.1-6.1 93.9-33.3 24-24.3 11.8-75.9 11.7-76.4z"/></g><path clip-path="url(#b)" fill="#FFF" d="M178.3 124.7h-23V102c0-9.5-7.8-17.1-17.3-17.1h-19.1c-9.6 0-17.3 7.7-17.3 17.1v22.7h-23c-9.6 0-17.3 7.7-17.3 17.1v18.9c0 9.5 7.8 17.1 17.3 17.1h23v22.7c0 9.5 7.8 17.1 17.3 17.1H138c9.6 0 17.3-7.7 17.3-17.1v-22.7h23c9.6 0 17.3-7.7 17.3-17.1v-18.9c0-9.4-7.8-17.1-17.3-17.1z"/><linearGradient id="d" gradientUnits="userSpaceOnUse" x1="55.4075" y1="151.3031" x2="189.747" y2="151.3031"><stop offset=".09736761" stop-color="#5273aa"/><stop offset=".8835" stop-color="#588fcb"/></linearGradient><path clip-path="url(#b)" fill="url(#d)" d="M172.4 124.7h-23V102c0-9.5-7.8-17.1-17.3-17.1H113c-9.6 0-17.3 7.7-17.3 17.1v22.7h-23c-9.6 0-17.3 7.7-17.3 17.1v18.9c0 9.5 7.8 17.1 17.3 17.1h23v22.7c0 9.5 7.8 17.1 17.3 17.1h19.1c9.6 0 17.3-7.7 17.3-17.1v-22.7h23c9.6 0 17.3-7.7 17.3-17.1v-18.9c0-9.4-7.7-17.1-17.3-17.1z"/></svg>