<svg xmlns="http://www.w3.org/2000/svg" xmlns:xlink="http://www.w3.org/1999/xlink" viewBox="0 0 400 250"><path d="M0 0h400v250H0z"/><defs><path id="a" d="M0 0h400v250H0z"/></defs><clipPath id="b"><use xlink:href="#a" overflow="visible"/></clipPath><g clip-path="url(#b)"><path fill="#860984" d="M297.5 221.1c0 26.6-.1 53.2.1 79.8 0 3.3-.8 4.4-4.3 4.4-43.4-.1-86.7 0-130.1-.1-19.4 0-34.2-14.9-34.2-34.3 0-43.2 0-86.5-.1-129.7 0-3.5.8-4.6 4.5-4.6 53.3.1 106.6.1 159.9 0 3.5 0 4.3 1.1 4.3 4.4-.1 26.6-.1 53.3-.1 80.1z"/><path fill="#87872D" d="M387.4 130.6c-26.6 0-53.2-.1-79.8.1-3.2 0-4.2-.8-4.2-4.1.1-53.4.1-106.9 0-160.3 0-3.5 1.1-4.3 4.4-4.3 43.2.1 86.5 0 129.7.1 19.7 0 34.5 14.8 34.5 34.4 0 43.2 0 86.5.1 129.7 0 3.7-1.1 4.5-4.6 4.5-26.7-.1-53.4-.1-80.1-.1z"/><path fill="#1F6D85" d="M297.5 46.7c0 26.5-.1 52.9.1 79.4 0 3.6-.9 4.6-4.5 4.6-53.2-.1-106.3-.1-159.5 0-3.9 0-4.7-1.2-4.6-4.8C130.4 48 189.3-21.2 266.1-35c8.6-1.5 17.2-2.6 25.9-2.9 5.5-.2 5.5-.1 5.5 5.2v79.4z"/><path fill="#208729" d="M303.5 221v-79.4c0-4.9 0-4.9 4.9-4.9h158.9c4.8 0 4.8 0 4.8 5-1.4 75-55.9 141.8-129.9 159-11.3 2.6-22.7 4-34.3 4.5-3.5.2-4.4-1.1-4.4-4.4.1-26.6 0-53.2 0-79.8z"/></g></svg>