<svg xmlns="http://www.w3.org/2000/svg" viewBox="0 0 400 250"><g fill="#FBA734"><path d="M383 125c.1 61.7-49.5 111.4-111.1 111.4-61.5 0-111.2-49.5-111.2-110.9-.1-61.7 49.5-111.4 111.1-111.4 61.5 0 111.1 49.5 111.2 110.9zM272.1 25.6c-54.9 0-99.7 44.4-99.8 99.1-.1 55.2 44.3 100 99.2 100.1 55.2.1 99.9-44.4 100-99.3 0-55.1-44.5-99.8-99.4-99.9z"/><path d="M272.1 156.5c17 0 34 .4 50.9-.2 8.6-.3 14.3 6.7 11.3 15.5-5.2 15-15.9 24.6-29.7 30.6-24.3 10.6-48.5 9.7-71.6-3.5-11.1-6.4-19.4-15.4-23.2-28.2-2.3-7.7 3-14.5 10.8-14.3 17.1.4 34.3.1 51.5.1zm.1 7.7h-51.3c-4.2 0-4.7.8-3.6 4.8 2.2 8 7 14.1 13.3 19.1 21.5 17 55.5 17.7 77.8 3.6 8.5-5.4 15.3-12.3 18.4-22.2 1.4-4.5.8-5.3-4.1-5.4-16.8.1-33.7.1-50.5.1zM271.8 67h44.4c2.5 0 4.5.6 4.5 3.4 0 2.5-2 3.3-4.3 3.3h-2.3c-11.9 0-23.7.2-35.6-.1-3.7-.1-4.4 1.1-4.3 4.5.2 17.2.1 34.4.1 51.7 0 1 0 2-.1 3.1-.1 1.5-1 2.4-2.5 2.3-1.3-.1-2.1-.9-2.2-2.2-.1-1-.1-2-.1-3.1 0-17.2-.1-34.4.1-51.7 0-3.8-1.1-4.6-4.7-4.5-11.9.2-23.7.1-35.6.1h-2.7c-2.2-.2-3.7-1.3-3.6-3.6.1-2.1 1.6-3.1 3.7-3.1h16.8c9.5-.1 19-.1 28.4-.1z"/><path d="M255.8 114.4c0 16.1-13.2 29.2-29.2 29.2-16.2 0-29.5-13.4-29.4-29.5.1-16 13.4-29.2 29.3-29.2 16.2-.1 29.3 13.2 29.3 29.5zm-53.1-.2c0 13.2 10.6 23.9 23.8 24 13 .1 23.9-10.8 23.9-23.9 0-13.2-10.6-23.8-23.9-23.8-13.3-.1-23.8 10.3-23.8 23.7zM287.9 114.1c0-16.1 13.1-29.2 29.2-29.3 16-.1 29.6 13.5 29.4 29.5-.2 16.1-13.3 29.2-29.3 29.2-16.1.1-29.3-13.1-29.3-29.4zm53.1 0c0-13.3-10.5-23.7-23.9-23.7-13.3 0-23.9 10.7-23.8 23.9 0 13.1 11 24 24 23.9 13.2-.2 23.7-10.8 23.7-24.1z"/></g></svg>